<svg xmlns="http://www.w3.org/2000/svg" xmlns:xlink="http://www.w3.org/1999/xlink" width="500" zoomAndPan="magnify" viewBox="0 0 375 374.999991" height="500" preserveAspectRatio="xMidYMid meet" version="1.0"><defs><g/><clipPath id="562589357f"><path d="M 49.722656 114.632812 L 149.472656 114.632812 L 149.472656 260.132812 L 49.722656 260.132812 Z M 49.722656 114.632812 " clip-rule="nonzero"/></clipPath></defs><g clip-path="url(#562589357f)"><path fill="#e3a72f" d="M 113.402344 114.648438 L 132.179688 114.648438 C 134.324219 114.648438 136.0625 116.375 136.074219 118.507812 C 136.074219 118.519531 136.074219 118.53125 136.074219 118.542969 L 136.960938 131.191406 C 136.984375 131.464844 137.175781 131.691406 137.441406 131.761719 C 141.488281 132.816406 145.363281 134.292969 149.011719 136.148438 C 149.015625 136.148438 149.015625 136.152344 149.019531 136.152344 C 149.367188 136.332031 149.46875 136.78125 149.230469 137.09375 L 140.335938 148.71875 C 140.160156 148.953125 139.84375 149.035156 139.574219 148.917969 C 138.058594 148.261719 136.492188 147.691406 134.890625 147.210938 C 132.835938 146.597656 130.714844 146.140625 128.542969 145.84375 C 127.242188 145.667969 125.921875 145.550781 124.585938 145.492188 C 123.992188 145.46875 123.390625 145.453125 122.789062 145.453125 C 121.636719 145.453125 120.492188 145.503906 119.359375 145.59375 C 107.027344 146.582031 96.195312 152.859375 89.152344 162.144531 C 83.828125 169.167969 80.671875 177.90625 80.671875 187.382812 C 80.671875 210.539062 99.53125 229.308594 122.789062 229.308594 C 128.757812 229.308594 134.433594 228.070312 139.578125 225.84375 C 139.847656 225.730469 140.160156 225.8125 140.335938 226.042969 L 141.171875 227.132812 L 149.226562 237.664062 C 149.464844 237.976562 149.363281 238.429688 149.011719 238.613281 C 148.96875 238.632812 148.925781 238.65625 148.882812 238.679688 C 148.828125 238.707031 148.769531 238.734375 148.714844 238.765625 C 146.882812 239.679688 144.996094 240.503906 143.058594 241.226562 C 141.230469 241.910156 139.355469 242.503906 137.441406 243 C 137.175781 243.070312 136.984375 243.300781 136.960938 243.570312 L 136.074219 256.21875 C 136.074219 256.230469 136.074219 256.242188 136.074219 256.253906 C 136.0625 258.386719 134.324219 260.113281 132.179688 260.113281 L 113.402344 260.113281 C 111.257812 260.113281 109.515625 258.386719 109.507812 256.253906 C 109.507812 256.242188 109.507812 256.230469 109.507812 256.21875 L 108.617188 243.570312 C 108.597656 243.300781 108.40625 243.070312 108.140625 243 C 102.992188 241.660156 98.125 239.632812 93.644531 237.019531 C 93.40625 236.878906 93.109375 236.90625 92.902344 237.085938 L 83.285156 245.410156 C 83.277344 245.417969 83.269531 245.421875 83.261719 245.433594 C 81.738281 246.933594 79.28125 246.929688 77.765625 245.421875 L 69.671875 237.363281 L 64.488281 232.203125 C 62.96875 230.691406 62.964844 228.246094 64.476562 226.730469 C 64.484375 226.722656 64.492188 226.714844 64.496094 226.707031 L 72.859375 217.132812 C 73.039062 216.929688 73.0625 216.628906 72.925781 216.394531 C 70.300781 211.933594 68.261719 207.089844 66.917969 201.964844 C 66.847656 201.699219 66.617188 201.507812 66.34375 201.488281 L 53.636719 200.605469 C 53.625 200.605469 53.613281 200.605469 53.601562 200.605469 C 51.460938 200.59375 49.726562 198.863281 49.726562 196.730469 L 49.726562 178.035156 C 49.726562 175.898438 51.460938 174.167969 53.601562 174.15625 C 53.613281 174.15625 53.625 174.15625 53.636719 174.15625 L 66.34375 173.273438 C 66.617188 173.253906 66.847656 173.0625 66.917969 172.796875 C 68.261719 167.671875 70.300781 162.832031 72.925781 158.367188 C 73.0625 158.132812 73.039062 157.835938 72.859375 157.628906 L 71.449219 156.011719 L 64.496094 148.054688 C 64.492188 148.046875 64.484375 148.039062 64.476562 148.03125 C 62.964844 146.515625 62.96875 144.070312 64.488281 142.5625 L 69.671875 137.398438 L 77.765625 129.339844 C 79.28125 127.832031 81.738281 127.828125 83.261719 129.328125 C 83.269531 129.339844 83.277344 129.34375 83.285156 129.351562 L 92.902344 137.675781 C 93.109375 137.855469 93.40625 137.882812 93.644531 137.742188 C 97.515625 135.484375 101.675781 133.664062 106.054688 132.347656 C 106.746094 132.140625 107.441406 131.945312 108.140625 131.761719 C 108.40625 131.691406 108.597656 131.464844 108.617188 131.191406 L 108.75 129.316406 L 108.859375 127.75 L 109.1875 123.0625 L 109.507812 118.542969 C 109.507812 118.53125 109.507812 118.519531 109.507812 118.507812 C 109.515625 116.375 111.257812 114.648438 113.402344 114.648438 " fill-opacity="1" fill-rule="nonzero"/></g><g fill="#ffffff" fill-opacity="1"><g transform="translate(91.579928, 214.12213)"><g><path d="M 48.46875 -4.5625 C 47.070312 -3.414062 44.847656 -2.269531 41.796875 -1.125 C 38.753906 0.0195312 35.4375 0.59375 31.84375 0.59375 C 26.09375 0.59375 21.09375 -0.648438 16.84375 -3.140625 C 12.601562 -5.640625 9.359375 -9 7.109375 -13.21875 C 4.867188 -17.4375 3.75 -22.070312 3.75 -27.125 C 3.75 -32.664062 4.867188 -37.609375 7.109375 -41.953125 C 9.359375 -46.296875 12.503906 -49.675781 16.546875 -52.09375 C 20.597656 -54.519531 25.269531 -55.734375 30.5625 -55.734375 C 33.914062 -55.734375 37.015625 -55.285156 39.859375 -54.390625 C 42.703125 -53.492188 45.195312 -52.367188 47.34375 -51.015625 L 43.078125 -40.75 C 39.128906 -43.75 35.082031 -45.25 30.9375 -45.25 C 28.144531 -45.25 25.523438 -44.472656 23.078125 -42.921875 C 20.628906 -41.378906 18.679688 -39.269531 17.234375 -36.59375 C 15.785156 -33.925781 15.0625 -30.96875 15.0625 -27.71875 C 15.0625 -24.175781 15.734375 -21.066406 17.078125 -18.390625 C 18.429688 -15.722656 20.351562 -13.640625 22.84375 -12.140625 C 25.34375 -10.640625 28.265625 -9.890625 31.609375 -9.890625 C 34.304688 -9.890625 36.726562 -10.328125 38.875 -11.203125 C 41.03125 -12.078125 42.734375 -13.113281 43.984375 -14.3125 Z M 48.46875 -4.5625 "/></g></g></g><g fill="#ffffff" fill-opacity="1"><g transform="translate(135.473442, 214.12213)"><g><path d="M 18.953125 -47.125 L 18.953125 -32.890625 L 26.890625 -32.890625 L 26.890625 -24.71875 L 18.953125 -24.71875 L 18.953125 0 L 8.46875 0 L 8.46875 -24.71875 L 3.375 -24.71875 L 3.375 -32.890625 L 8.46875 -32.890625 L 8.46875 -47.125 Z M 18.953125 -47.125 "/></g></g></g><g fill="#ffffff" fill-opacity="1"><g transform="translate(156.67037, 214.12213)"><g><path d="M 15.65625 -25.25 C 16.550781 -27 17.785156 -28.570312 19.359375 -29.96875 C 20.941406 -31.363281 22.554688 -32.445312 24.203125 -33.21875 C 25.847656 -34 27.144531 -34.390625 28.09375 -34.390625 L 27.578125 -23.90625 C 27.273438 -23.945312 26.847656 -23.96875 26.296875 -23.96875 C 24.203125 -23.96875 22.351562 -23.414062 20.75 -22.3125 C 19.15625 -21.21875 17.929688 -19.8125 17.078125 -18.09375 C 16.234375 -16.375 15.8125 -14.613281 15.8125 -12.8125 L 15.8125 0 L 5.390625 0 L 5.390625 -32.734375 L 14.828125 -32.734375 Z M 15.65625 -25.25 "/></g></g></g><g fill="#ffffff" fill-opacity="1"><g transform="translate(179.065804, 214.12213)"><g><path d="M 15.890625 -59.109375 L 15.890625 0 L 5.390625 0 L 5.390625 -59.109375 Z M 15.890625 -59.109375 "/></g></g></g><g fill="#ffffff" fill-opacity="1"><g transform="translate(192.023044, 214.12213)"><g/></g></g><g fill="#ffffff" fill-opacity="1"><g transform="translate(208.051443, 214.12213)"><g><path d="M 44.734375 -55.140625 L 44.734375 -44.65625 L 17.984375 -44.65625 L 17.984375 -32.890625 L 41.65625 -32.890625 L 41.65625 -22.40625 L 17.984375 -22.40625 L 17.984375 -10.484375 L 45.78125 -10.484375 L 45.78125 0 L 7.125 0 L 7.125 -55.140625 Z M 44.734375 -55.140625 "/></g></g></g><g fill="#ffffff" fill-opacity="1"><g transform="translate(249.622871, 214.12213)"><g><path d="M 41.359375 -59.109375 L 41.359375 0 L 30.875 0 L 30.875 -3.453125 C 27.070312 -0.546875 23.023438 0.90625 18.734375 0.90625 C 15.679688 0.90625 12.957031 0.179688 10.5625 -1.265625 C 8.164062 -2.722656 6.28125 -4.796875 4.90625 -7.484375 C 3.53125 -10.179688 2.84375 -13.351562 2.84375 -17 C 2.84375 -20.601562 3.578125 -23.710938 5.046875 -26.328125 C 6.523438 -28.953125 8.5625 -30.953125 11.15625 -32.328125 C 13.757812 -33.703125 16.734375 -34.390625 20.078125 -34.390625 C 22.222656 -34.390625 24.242188 -34.050781 26.140625 -33.375 C 28.046875 -32.695312 29.644531 -31.710938 30.9375 -30.421875 L 30.9375 -59.109375 Z M 22.171875 -7.9375 C 24.273438 -7.9375 26.023438 -8.347656 27.421875 -9.171875 C 28.816406 -10.003906 29.96875 -11.242188 30.875 -12.890625 L 30.875 -20.90625 C 30.269531 -22.5 29.191406 -23.769531 27.640625 -24.71875 C 26.097656 -25.664062 24.273438 -26.140625 22.171875 -26.140625 C 19.828125 -26.140625 17.789062 -25.289062 16.0625 -23.59375 C 14.34375 -21.894531 13.484375 -19.75 13.484375 -17.15625 C 13.484375 -15.457031 13.882812 -13.894531 14.6875 -12.46875 C 15.488281 -11.050781 16.550781 -9.941406 17.875 -9.140625 C 19.195312 -8.335938 20.628906 -7.9375 22.171875 -7.9375 Z M 22.171875 -7.9375 "/></g></g></g><g fill="#ffffff" fill-opacity="1"><g transform="translate(288.048238, 214.12213)"><g><path d="M 38.359375 -32.734375 L 38.359375 0 L 28.84375 0 L 28.09375 -5.25 C 26.945312 -3.144531 25.335938 -1.476562 23.265625 -0.25 C 21.191406 0.96875 18.753906 1.578125 15.953125 1.578125 C 12.960938 1.578125 10.46875 0.65625 8.46875 -1.1875 C 6.46875 -3.039062 5.441406 -5.390625 5.390625 -8.234375 L 5.390625 -32.734375 L 15.890625 -32.734375 L 15.890625 -12.140625 C 16.035156 -8.941406 17.503906 -7.34375 20.296875 -7.34375 C 22.597656 -7.34375 24.4375 -8.460938 25.8125 -10.703125 C 27.1875 -12.953125 27.875 -15.851562 27.875 -19.40625 L 27.875 -32.734375 Z M 38.359375 -32.734375 "/></g></g></g></svg>