<svg xmlns="http://www.w3.org/2000/svg" xmlns:xlink="http://www.w3.org/1999/xlink" width="500" zoomAndPan="magnify" viewBox="0 0 375 374.999991" height="500" preserveAspectRatio="xMidYMid meet" version="1.0"><defs><g/><clipPath id="3039648382"><path d="M 211.070312 142.953125 L 355.972656 142.953125 L 355.972656 208.460938 L 211.070312 208.460938 Z M 211.070312 142.953125 " clip-rule="nonzero"/></clipPath><clipPath id="efc5845a09"><path d="M 217.28125 148.921875 L 352.457031 148.921875 L 352.457031 155.050781 L 217.28125 155.050781 Z M 217.28125 148.921875 " clip-rule="nonzero"/></clipPath><clipPath id="ad1060c67e"><path d="M 59.648438 201.265625 L 205.144531 201.265625 L 205.144531 208.453125 L 59.648438 208.453125 Z M 59.648438 201.265625 " clip-rule="nonzero"/></clipPath></defs><g clip-path="url(#3039648382)"><path fill="#000000" d="M 211.070312 142.953125 L 355.910156 142.953125 L 355.910156 208.460938 L 211.070312 208.460938 Z M 211.070312 142.953125 " fill-opacity="1" fill-rule="nonzero"/></g><g clip-path="url(#efc5845a09)"><path fill="#ffffff" d="M 217.28125 148.921875 L 352.460938 148.921875 L 352.460938 155.050781 L 217.28125 155.050781 Z M 217.28125 148.921875 " fill-opacity="1" fill-rule="nonzero"/></g><g fill="#000000" fill-opacity="1"><g transform="translate(61.511309, 190.858377)"><g><path d="M 22.265625 0.765625 C 18.378906 0.765625 14.929688 -0.0820312 11.921875 -1.78125 C 8.921875 -3.488281 6.578125 -5.84375 4.890625 -8.84375 C 3.203125 -11.851562 2.359375 -15.320312 2.359375 -19.25 C 2.359375 -23.164062 3.203125 -26.625 4.890625 -29.625 C 6.578125 -32.632812 8.914062 -34.992188 11.90625 -36.703125 C 14.894531 -38.410156 18.332031 -39.265625 22.21875 -39.265625 C 25.476562 -39.265625 28.460938 -38.640625 31.171875 -37.390625 C 33.890625 -36.140625 36.171875 -34.378906 38.015625 -32.109375 C 39.867188 -29.835938 41.160156 -27.160156 41.890625 -24.078125 L 32.875 -24.078125 C 32.144531 -26.203125 30.84375 -27.878906 28.96875 -29.109375 C 27.101562 -30.335938 24.941406 -30.953125 22.484375 -30.953125 C 20.328125 -30.953125 18.394531 -30.457031 16.6875 -29.46875 C 14.976562 -28.476562 13.644531 -27.101562 12.6875 -25.34375 C 11.738281 -23.582031 11.265625 -21.550781 11.265625 -19.25 C 11.265625 -16.9375 11.738281 -14.898438 12.6875 -13.140625 C 13.644531 -11.378906 14.96875 -10.003906 16.65625 -9.015625 C 18.34375 -8.023438 20.269531 -7.53125 22.4375 -7.53125 C 24.96875 -7.53125 27.1875 -8.179688 29.09375 -9.484375 C 31 -10.785156 32.351562 -12.535156 33.15625 -14.734375 L 42.171875 -14.734375 C 41.546875 -11.617188 40.296875 -8.894531 38.421875 -6.5625 C 36.554688 -4.238281 34.238281 -2.4375 31.46875 -1.15625 C 28.707031 0.125 25.640625 0.765625 22.265625 0.765625 Z M 22.265625 0.765625 "/></g></g></g><g fill="#000000" fill-opacity="1"><g transform="translate(117.269118, 190.858377)"><g><path d="M 17.4375 0 C 14.28125 0 11.832031 -0.894531 10.09375 -2.6875 C 8.351562 -4.488281 7.484375 -7.019531 7.484375 -10.28125 L 7.484375 -24.296875 L 1.484375 -24.296875 L 1.484375 -28.53125 L 4.34375 -28.53125 C 5.664062 -28.53125 6.582031 -28.75 7.09375 -29.1875 C 7.601562 -29.632812 7.929688 -30.5 8.078125 -31.78125 L 8.515625 -35.625 L 12.09375 -35.625 L 12.09375 -28.53125 L 21.328125 -28.53125 L 21.328125 -24.296875 L 12.09375 -24.296875 L 12.09375 -10.5 C 12.09375 -6.46875 13.945312 -4.453125 17.65625 -4.453125 L 21.71875 -4.453125 L 21.71875 0 Z M 17.4375 0 "/></g></g></g><g fill="#000000" fill-opacity="1"><g transform="translate(153.065411, 190.858377)"><g><path d="M 5.109375 0 L 5.109375 -28.53125 L 8.90625 -28.53125 L 9.453125 -23.59375 C 10.484375 -25.3125 11.757812 -26.5625 13.28125 -27.34375 C 14.800781 -28.132812 16.769531 -28.53125 19.1875 -28.53125 L 21.78125 -28.53125 L 21.78125 -24.25 L 18.96875 -24.25 C 17.25 -24.25 15.691406 -23.898438 14.296875 -23.203125 C 12.898438 -22.503906 11.789062 -21.347656 10.96875 -19.734375 C 10.144531 -18.117188 9.734375 -15.957031 9.734375 -13.25 L 9.734375 0 Z M 5.109375 0 "/></g></g></g><g fill="#000000" fill-opacity="1"><g transform="translate(188.421827, 190.858377)"><g><path d="M 5.109375 0 L 5.109375 -40.6875 L 9.734375 -40.6875 L 9.734375 0 Z M 5.109375 0 "/></g></g></g><g fill="#ffffff" fill-opacity="1"><g transform="translate(216.763862, 200.423718)"><g><path d="M 4.625 0 L 4.625 -38.484375 L 29.90625 -38.484375 L 29.90625 -31.125 L 13.3125 -31.125 L 13.3125 -23.140625 L 28.421875 -23.140625 L 28.421875 -15.828125 L 13.3125 -15.828125 L 13.3125 -7.421875 L 30.515625 -7.421875 L 30.515625 0 Z M 4.625 0 "/></g></g></g><g fill="#ffffff" fill-opacity="1"><g transform="translate(261.470891, 200.423718)"><g><path d="M 17.4375 0.71875 C 14.613281 0.71875 12.097656 0.0664062 9.890625 -1.234375 C 7.691406 -2.535156 5.96875 -4.3125 4.71875 -6.5625 C 3.476562 -8.820312 2.859375 -11.398438 2.859375 -14.296875 C 2.859375 -17.191406 3.476562 -19.753906 4.71875 -21.984375 C 5.96875 -24.222656 7.691406 -25.992188 9.890625 -27.296875 C 12.097656 -28.597656 14.613281 -29.25 17.4375 -29.25 C 19.664062 -29.25 21.710938 -28.835938 23.578125 -28.015625 C 25.453125 -27.191406 27.03125 -26.023438 28.3125 -24.515625 L 28.3125 -40.6875 L 32.9375 -40.6875 L 32.9375 0 L 29.140625 0 L 28.59375 -4.40625 C 27.3125 -2.820312 25.707031 -1.570312 23.78125 -0.65625 C 21.851562 0.257812 19.738281 0.71875 17.4375 0.71875 Z M 7.484375 -14.296875 C 7.484375 -12.242188 7.929688 -10.421875 8.828125 -8.828125 C 9.722656 -7.234375 10.957031 -5.984375 12.53125 -5.078125 C 14.113281 -4.179688 15.929688 -3.734375 17.984375 -3.734375 C 20.066406 -3.734375 21.894531 -4.179688 23.46875 -5.078125 C 25.050781 -5.984375 26.28125 -7.234375 27.15625 -8.828125 C 28.039062 -10.421875 28.484375 -12.242188 28.484375 -14.296875 C 28.484375 -16.347656 28.039062 -18.171875 27.15625 -19.765625 C 26.28125 -21.359375 25.050781 -22.601562 23.46875 -23.5 C 21.894531 -24.40625 20.066406 -24.859375 17.984375 -24.859375 C 15.929688 -24.859375 14.113281 -24.40625 12.53125 -23.5 C 10.957031 -22.601562 9.722656 -21.359375 8.828125 -19.765625 C 7.929688 -18.171875 7.484375 -16.347656 7.484375 -14.296875 Z M 7.484375 -14.296875 "/></g></g></g><g fill="#ffffff" fill-opacity="1"><g transform="translate(310.90331, 200.423718)"><g><path d="M 16.5 0.71875 C 12.757812 0.71875 9.832031 -0.488281 7.71875 -2.90625 C 5.613281 -5.332031 4.5625 -8.578125 4.5625 -12.640625 L 4.5625 -28.53125 L 9.1875 -28.53125 L 9.1875 -13.09375 C 9.1875 -10.226562 9.890625 -7.953125 11.296875 -6.265625 C 12.710938 -4.578125 14.644531 -3.734375 17.09375 -3.734375 C 19.769531 -3.734375 21.941406 -4.6875 23.609375 -6.59375 C 25.285156 -8.5 26.125 -11.007812 26.125 -14.125 L 26.125 -28.53125 L 30.734375 -28.53125 L 30.734375 0 L 26.9375 0 L 26.453125 -4.171875 C 25.203125 -2.492188 23.707031 -1.257812 21.96875 -0.46875 C 20.226562 0.320312 18.40625 0.71875 16.5 0.71875 Z M 16.5 0.71875 "/></g></g></g><g clip-path="url(#ad1060c67e)"><path fill="#000000" d="M 59.648438 201.265625 L 205.144531 201.265625 L 205.144531 208.453125 L 59.648438 208.453125 Z M 59.648438 201.265625 " fill-opacity="1" fill-rule="nonzero"/></g></svg>